<?xml version="1.0" standalone="no"?><!DOCTYPE svg PUBLIC "-//W3C//DTD SVG 1.1//EN" "http://www.w3.org/Graphics/SVG/1.1/DTD/svg11.dtd"><svg t="1586937752931" class="icon" viewBox="0 0 1024 1024" version="1.1" xmlns="http://www.w3.org/2000/svg" p-id="11965" xmlns:xlink="http://www.w3.org/1999/xlink" width="200" height="200"><defs><style type="text/css"></style></defs><path d="M32.028444 357.831111A32.085333 32.085333 0 0 1 0 325.916444V165.888A166.4 166.4 0 0 1 165.888 0h159.971556c17.635556 0 32.028444 14.392889 32.028444 32.028444 0 17.578667-14.392889 31.971556-32.028444 31.971556H165.888c-56.035556 0-101.888 45.852444-101.888 101.831111v160.028445a31.744 31.744 0 0 1-32.028444 32.028444z m960 0a32.085333 32.085333 0 0 1-32.028444-31.971555V165.888c0-56.035556-44.828444-101.888-100.238222-101.888H699.733333a32.085333 32.085333 0 0 1-32.028444-32.028444c0-17.578667 14.449778-31.971556 32.028444-31.971556h160.028445C950.385778 0 1024 74.695111 1024 165.888v159.971556a31.744 31.744 0 0 1-32.028444 32.028444zM859.761778 1024H699.733333a32.085333 32.085333 0 0 1-32.028444-32.028444c0-17.578667 14.449778-31.971556 32.028444-31.971556h160.028445c56.490667 0 100.238222-44.259556 100.238222-100.295111V699.733333c0-17.635556 14.392889-32.028444 32.028444-32.028444 17.578667 0 31.971556 14.449778 31.971556 32.028444v159.971556A164.352 164.352 0 0 1 859.761778 1024z m-533.902222 0H165.888C74.695111 1024 0 950.385778 0 859.704889V699.733333c0-17.635556 14.392889-32.028444 32.028444-32.028444 17.578667 0 31.971556 14.449778 31.971556 32.028444v159.971556c0 55.466667 45.852444 100.295111 101.831111 100.295111h160.028445c17.635556 0 32.028444 14.392889 32.028444 32.028444 0 17.578667-13.880889 31.971556-32.028444 31.971556z m632.035555-480.028444H63.943111A32.085333 32.085333 0 0 1 31.971556 512c0-17.635556 14.449778-32.028444 32.028444-32.028444h893.838222c17.635556 0 32.028444 14.449778 32.028445 32.028444 0 17.635556-14.392889 32.028444-32.028445 32.028444z" p-id="11966"></path></svg>